<?xml version="1.0" encoding="UTF-8"?>
<svg width="26px" height="26px" viewBox="0 0 26 26" version="1.1" xmlns="http://www.w3.org/2000/svg" xmlns:xlink="http://www.w3.org/1999/xlink">
    <!-- Generator: Sketch 50.2 (55047) - http://www.bohemiancoding.com/sketch -->
    <title>picto_menu_player</title>
    <desc>Created with Sketch.</desc>
    <defs></defs>
    <g id="picto_menu_player" stroke="none" stroke-width="1" fill="none" fill-rule="evenodd">
        <g transform="translate(10.000000, 2.000000)" fill="#240F39" fill-rule="nonzero" id="Shape">
            <path d="M-4.6532358,13.6974134 C-6.03394768,13.6974134 -7.1532358,12.5781253 -7.1532358,11.1974134 C-7.1532358,9.81670154 -6.03394768,8.69741342 -4.6532358,8.69741342 C-3.27252393,8.69741342 -2.1532358,9.81670154 -2.1532358,11.1974134 C-2.1532358,12.5781253 -3.27252393,13.6974134 -4.6532358,13.6974134 Z M3.23536706,13.6974134 C1.85465519,13.6974134 0.735367063,12.5781253 0.735367063,11.1974134 C0.735367063,9.81670154 1.85465519,8.69741342 3.23536706,8.69741342 C4.61607894,8.69741342 5.73536706,9.81670154 5.73536706,11.1974134 C5.73536706,12.5781253 4.61607894,13.6974134 3.23536706,13.6974134 Z M11.1239699,13.6974134 C9.74325805,13.6974134 8.62396993,12.5781253 8.62396993,11.1974134 C8.62396993,9.81670154 9.74325805,8.69741342 11.1239699,8.69741342 C12.5046818,8.69741342 13.6239699,9.81670154 13.6239699,11.1974134 C13.6239699,12.5781253 12.5046818,13.6974134 11.1239699,13.6974134 Z" transform="translate(3.235367, 11.197413) rotate(90.000000) translate(-3.235367, -11.197413) "></path>
        </g>
    </g>
</svg>