<?xml version="1.0" encoding="UTF-8"?>
<svg width="30px" height="30px" viewBox="0 0 30 30" version="1.1" xmlns="http://www.w3.org/2000/svg" xmlns:xlink="http://www.w3.org/1999/xlink">
    <!-- Generator: Sketch 50.2 (55047) - http://www.bohemiancoding.com/sketch -->
    <title>picto_aleatoire</title>
    <desc>Created with Sketch.</desc>
    <defs></defs>
    <g id="picto_aleatoire" stroke="none" stroke-width="1" fill="none" fill-rule="evenodd">
        <g transform="translate(4.000000, 8.000000)" fill="#240F39" fill-rule="nonzero" id="Shape">
            <path d="M1.50829047,11.7948718 L0,11.7948718 L0,10.8213268 L1.50829047,10.8213268 C3.87804214,10.8213268 6.12898844,9.92663899 7.84653282,8.30179243 L12.0135214,4.35990883 C13.9144074,2.56274481 16.4044312,1.57264957 19.025972,1.57264957 L20.0453515,1.57264957 L20.0453515,2.54619455 L19.025972,2.54619455 C16.6562203,2.54619455 14.405274,3.44088238 12.6877297,5.06572894 L8.52074111,9.00761254 C6.6198551,10.8047766 4.12983131,11.7948718 1.50829047,11.7948718 Z"></path>
            <path d="M20.8471655,12.5811966 L19.8383551,12.5811966 C17.2444785,12.5811966 14.7797877,11.501504 12.8990941,9.54170802 L12.0272109,8.63294022 L12.6939451,7.86324786 L13.5658282,8.77201566 C15.265565,10.5439005 17.4931732,11.519552 19.8383551,11.519552 L20.8471655,11.519552 L20.8471655,12.5811966 Z"></path>
            <path d="M8.94778781,5.5042735 L8.65139273,5.21214046 C6.93318163,3.51918887 4.68136157,2.58700043 2.31069001,2.58700043 L0.801814059,2.58700043 L0.801814059,1.57264957 L2.31069001,1.57264957 C4.93275938,1.57264957 7.42423883,2.6042444 9.32537363,4.47673608 L9.62176871,4.76886913 L8.94778781,5.5042735 Z"></path>
            <polygon points="18.3808112 4.71794872 17.6399093 4.0093042 19.3653618 2.35897436 17.6399093 0.708644517 18.3808112 0 20.8471655 2.35897436"></polygon>
            <polygon points="19.1826252 14.1538462 18.4417234 13.4452016 20.1671759 11.7948718 18.4417234 10.144542 19.1826252 9.43589744 21.6489796 11.7948718"></polygon>
        </g>
    </g>
</svg>