<?xml version="1.0" encoding="UTF-8"?>
<svg width="26px" height="26px" viewBox="0 0 26 26" version="1.1" xmlns="http://www.w3.org/2000/svg" xmlns:xlink="http://www.w3.org/1999/xlink">
    <!-- Generator: Sketch 50.2 (55047) - http://www.bohemiancoding.com/sketch -->
    <title>picto_vol_mute</title>
    <desc>Created with Sketch.</desc>
    <defs></defs>
    <g id="picto_vol_mute" stroke="none" stroke-width="1" fill="none" fill-rule="evenodd">
        <g transform="translate(0.000000, 2.000000)" fill="#240F39" fill-rule="nonzero" id="Shape">
            <path d="M14.3302326,0.0907894737 C14.2395349,0.0302631579 14.1186047,0.0605263158 14.027907,0.121052632 L6.77209302,6.02236842 L0.362790698,6.02236842 C0.211627907,6.02236842 0.0906976744,6.14342105 0.0906976744,6.29473684 L0.0906976744,16.7355263 C0.0906976744,16.8868421 0.211627907,17.0078947 0.362790698,17.0078947 L6.77209302,17.0078947 L14.027907,22.9092105 C14.0883721,22.9394737 14.1488372,22.9697368 14.2093023,22.9697368 C14.2395349,22.9697368 14.3,22.9697368 14.3302326,22.9394737 C14.4209302,22.8789474 14.4813953,22.7881579 14.4813953,22.6973684 L14.4813953,0.332894737 C14.4813953,0.242105263 14.4209302,0.151315789 14.3302326,0.0907894737 Z M0.634883721,6.59736842 L6.59069767,6.59736842 L6.59069767,16.4631579 L0.634883721,16.4631579 L0.634883721,6.59736842 Z M13.9069767,22.1223684 L7.13488372,16.6144737 L7.13488372,6.44605263 L13.9069767,0.938157895 L13.9069767,22.1223684 Z"></path>
            <path d="M25.7581395,7.86842105 C25.6372093,7.74736842 25.4860465,7.74736842 25.3651163,7.86842105 L22.1,11.1368421 L18.8348837,7.86842105 C18.7139535,7.74736842 18.5627907,7.74736842 18.4418605,7.86842105 C18.3209302,7.98947368 18.3209302,8.14078947 18.4418605,8.26184211 L21.7069767,11.5302632 L18.4418605,14.7986842 C18.3209302,14.9197368 18.3209302,15.0710526 18.4418605,15.1921053 C18.5023256,15.2526316 18.5627907,15.2828947 18.6534884,15.2828947 C18.744186,15.2828947 18.8046512,15.2526316 18.8651163,15.1921053 L22.1302326,11.9236842 L25.3953488,15.1921053 C25.455814,15.2526316 25.5162791,15.2828947 25.6069767,15.2828947 C25.6674419,15.2828947 25.7581395,15.2526316 25.8186047,15.1921053 C25.9395349,15.0710526 25.9395349,14.9197368 25.8186047,14.7986842 L22.5534884,11.5302632 L25.8186047,8.26184211 C25.8790698,8.17105263 25.8790698,7.98947368 25.7581395,7.86842105 Z"></path>
        </g>
    </g>
</svg>