<?xml version="1.0" encoding="UTF-8"?>
<svg width="26px" height="26px" viewBox="0 0 26 26" version="1.1" xmlns="http://www.w3.org/2000/svg" xmlns:xlink="http://www.w3.org/1999/xlink">
    <!-- Generator: Sketch 50.2 (55047) - http://www.bohemiancoding.com/sketch -->
    <title>picto_vol_son</title>
    <desc>Created with Sketch.</desc>
    <defs></defs>
    <g id="picto_vol_son" stroke="none" stroke-width="1" fill="none" fill-rule="evenodd">
        <g transform="translate(1.000000, 2.000000)" fill="#240F39" fill-rule="nonzero" id="Shape">
            <path d="M14.2559524,0.0907894737 C14.1666667,0.0302631579 14.047619,0.0605263158 13.9583333,0.121052632 L6.81547619,6.02236842 L0.505952381,6.02236842 C0.357142857,6.02236842 0.238095238,6.14342105 0.238095238,6.29473684 L0.238095238,16.7355263 C0.238095238,16.8868421 0.357142857,17.0078947 0.505952381,17.0078947 L6.81547619,17.0078947 L13.9583333,22.9092105 C14.0178571,22.9394737 14.077381,22.9697368 14.1369048,22.9697368 C14.1666667,22.9697368 14.2261905,22.9697368 14.2559524,22.9394737 C14.3452381,22.8789474 14.4047619,22.7881579 14.4047619,22.6973684 L14.4047619,0.332894737 C14.4047619,0.211842105 14.3452381,0.121052632 14.2559524,0.0907894737 Z M0.773809524,6.56710526 L6.63690476,6.56710526 L6.63690476,16.4328947 L0.773809524,16.4328947 L0.773809524,6.56710526 Z M13.8690476,22.0921053 L7.20238095,16.5842105 L7.20238095,6.41578947 L13.8690476,0.907894737 L13.8690476,22.0921053 Z"></path>
            <path d="M21.0416667,3.14736842 C20.922619,3.26842105 20.922619,3.41973684 21.0416667,3.54078947 C23.0654762,5.68947368 24.1964286,8.50394737 24.1964286,11.5 C24.1964286,14.4960526 23.0654762,17.3105263 21.0416667,19.4592105 C20.922619,19.5802632 20.952381,19.7618421 21.0416667,19.8526316 C21.1011905,19.9131579 21.1607143,19.9434211 21.2202381,19.9434211 C21.2797619,19.9434211 21.3690476,19.9131579 21.4285714,19.8526316 C23.5714286,17.6131579 24.7321429,14.6473684 24.7321429,11.5 C24.7321429,8.35263158 23.5714286,5.38684211 21.4285714,3.14736842 C21.3392857,3.05657895 21.1607143,3.05657895 21.0416667,3.14736842 Z"></path>
            <path d="M18.7202381,5.93157895 C18.6011905,5.81052632 18.452381,5.81052632 18.3333333,5.93157895 C18.2142857,6.05263158 18.2142857,6.20394737 18.3333333,6.325 C19.702381,7.71710526 20.4464286,9.56315789 20.4464286,11.5302632 C20.4464286,13.4973684 19.702381,15.3434211 18.3333333,16.7355263 C18.2142857,16.8565789 18.2142857,17.0078947 18.3333333,17.1289474 C18.3928571,17.1894737 18.452381,17.2197368 18.5416667,17.2197368 C18.6309524,17.2197368 18.6904762,17.1894737 18.75,17.1289474 C20.2083333,15.6460526 21.0119048,13.6486842 21.0119048,11.5302632 C21.0119048,9.41184211 20.1785714,7.41447368 18.7202381,5.93157895 Z"></path>
        </g>
    </g>
</svg>